<?xml version="1.0" ?>
<!DOCTYPE svg  PUBLIC '-//W3C//DTD SVG 1.1//EN'  'http://www.w3.org/Graphics/SVG/1.1/DTD/svg11.dtd'>
<!-- Uploaded to: SVG Repo, www.svgrepo.com, Generator: SVG Repo Mixer Tools -->
<svg width="800px" height="800px" viewBox="-10 0 64 64" id="Layer_1" version="1.1" xml:space="preserve" xmlns="http://www.w3.org/2000/svg" xmlns:xlink="http://www.w3.org/1999/xlink">
<g id="Body_10_">
<g>
<path d="M36,52c0-6.375-4-8-4-8c-4.125-11.375,0-24,0-24H22H12    c0,0,4.125,12.625,0,24c0,0-4,1.625-4,8c0,0-8,4.875-8,8s1.625,4,4,4h18h18c2.375,0,4-0.875,4-4S36,52,36,52z" style="fill-rule:evenodd;clip-rule:evenodd;fill:#CCCCCC;"/>
</g>
</g>
<g id="Head_7_">
<g>
<path d="M22,6c-6.627,0-12,9.372-12,16c0,6.627,5.373,8,12,8s12-1.373,12-8C34,15.372,28.627,6,22,6z" style="fill:#9B7CAB;"/>
</g>
</g>
<g id="Ball_4_">
<g>
<circle cx="22" cy="4" r="4" style="fill:#846A91;"/>
</g>
</g>
<g id="Base_8_">
<g>
<path d="M40,56H4c-2.209,0-4,1.791-4,4s1.791,4,4,4h36c2.209,0,4-1.791,4-4S42.209,56,40,56z" style="fill:#B3B3B3;"/>
</g>
</g>
<g id="Shape_30_">
<g>
<path d="M32,24H12c-2.209,0-4,1.791-4,3.999C8,30.209,9.791,32,12,32h20c2.209,0,4-1.791,4-4.001    C36,25.791,34.209,24,32,24z" style="fill:#B3B3B3;"/>
</g>
</g>
<g/>
<g/>
<g/>
<g/>
<g/>
<g/>
<g/>
<g/>
<g/>
<g/>
<g/>
<g/>
<g/>
<g/>
<g/>
</svg>