<?xml version="1.0" encoding="UTF-8" standalone="no"?>
<svg
   xmlns:dc="http://purl.org/dc/elements/1.1/"
   xmlns:cc="http://creativecommons.org/ns#"
   xmlns:rdf="http://www.w3.org/1999/02/22-rdf-syntax-ns#"
   xmlns:svg="http://www.w3.org/2000/svg"
   xmlns="http://www.w3.org/2000/svg"
   xmlns:sodipodi="http://sodipodi.sourceforge.net/DTD/sodipodi-0.dtd"
   xmlns:inkscape="http://www.inkscape.org/namespaces/inkscape"
   height="300"
   width="253.54091"
   version="1.1"
   id="Capa_1"
   viewBox="0 0 8.2644828 9.7788749"
   xml:space="preserve"
   sodipodi:docname="up-arrow.svg"
   inkscape:version="1.0.1 (c497b03c, 2020-09-10)"><metadata
   id="metadata843"><rdf:RDF><cc:Work
       rdf:about=""><dc:format>image/svg+xml</dc:format><dc:type
         rdf:resource="http://purl.org/dc/dcmitype/StillImage" /><dc:title></dc:title></cc:Work></rdf:RDF></metadata><defs
   id="defs841" /><sodipodi:namedview
   pagecolor="#ffffff"
   bordercolor="#666666"
   borderopacity="1"
   objecttolerance="10"
   gridtolerance="10"
   guidetolerance="10"
   inkscape:pageopacity="0"
   inkscape:pageshadow="2"
   inkscape:window-width="1497"
   inkscape:window-height="929"
   id="namedview839"
   showgrid="false"
   inkscape:zoom="1.0074671"
   inkscape:cx="7.6467566"
   inkscape:cy="100.34708"
   inkscape:window-x="0"
   inkscape:window-y="25"
   inkscape:window-maximized="0"
   inkscape:current-layer="Capa_1" />
<g
   id="g836"
   transform="matrix(0,-0.37500162,0.37500162,0,-0.75729026,9.778875)">
	<g
   id="c103_arrow">
		<path
   style="fill:#030104"
   d="m 25.709,13.552 -9.721,9.994 c 0,0 -1.151,1.219 -1.151,-0.105 0,-1.325 0,-4.532 0,-4.532 0,0 -0.781,0 -1.976,0 -3.42,0 -9.642,0 -12.173,0 0,0 -0.688,0.184 -0.688,-0.861 0.001,-1.047 0.001,-9.533 0.001,-10.279 0,-0.746 0.575,-0.729 0.575,-0.729 2.463,0 8.895,0 12.199,0 1.072,0 1.771,0 1.771,0 0,0 0,-2.569 0,-4.186 0,-1.61 1.208,-0.395 1.208,-0.395 0,0 9.081,8.791 10.033,9.744 0.695,0.691 -0.078,1.349 -0.078,1.349 z"
   id="path833" />
	</g>
</g>
</svg>
